<?xml version="1.0" standalone="no"?>
<!DOCTYPE svg PUBLIC "-//W3C//DTD SVG 20010904//EN"
 "http://www.w3.org/TR/2001/REC-SVG-20010904/DTD/svg10.dtd">
<svg version="1.0" xmlns="http://www.w3.org/2000/svg"
 width="100.000000pt" height="100.000000pt" viewBox="0 0 100.000000 100.000000"
 preserveAspectRatio="xMidYMid meet">

<g transform="translate(0.000000,100.000000) scale(0.100000,-0.100000)"
fill="#000000" stroke="none">
<path d="M216 844 c-33 -10 -64 -31 -97 -64 -108 -108 -102 -269 17 -432 41
-55 122 -123 266 -222 l97 -67 78 52 c134 90 242 178 283 233 123 162 130 327
20 436 -98 99 -254 103 -356 8 l-22 -19 -48 34 c-80 57 -147 68 -238 41z m173
-44 c24 -11 59 -37 77 -57 l34 -37 34 37 c42 46 108 77 166 77 55 0 138 -37
168 -74 94 -121 58 -291 -91 -432 -69 -66 -258 -204 -278 -204 -21 0 -248 172
-302 228 -133 140 -155 315 -52 417 65 65 160 83 244 45z"/>
</g>
</svg>
